<svg t="1623571562003" class="icon" viewBox="0 0 1024 1024" version="1.1" xmlns="http://www.w3.org/2000/svg" p-id="1353" width="200" height="200"><path d="M811.44 388.9c-3.32 0-6.5 0.55-9.48 1.54v-25.23c0-33.08-26.92-60-60-60h-582.5c-33.08 0-60 26.92-60 60v293.58c0 33.08 26.92 60 60 60h582.5c33.08 0 60-26.92 60-60v-25.23c2.98 0.99 6.17 1.54 9.48 1.54 67.88 0 123.1-55.22 123.1-123.1s-55.22-123.1-123.1-123.1z m-69.48 269.89h-582.5V365.21h582.5l0.04 293.58h-0.04z m69.48-83.69c-3.32 0-6.5 0.55-9.48 1.54V447.36c2.98 0.99 6.17 1.54 9.48 1.54 34.79 0 63.1 28.3 63.1 63.1s-28.31 63.1-63.1 63.1z" fill="#333333" p-id="1354"></path><path d="M652.02 389.32c-16.57 0-30 13.43-30 30v186.64c0 16.57 13.43 30 30 30s30-13.43 30-30V419.32c0-16.57-13.44-30-30-30zM518.44 389.32c-16.57 0-30 13.43-30 30v186.64c0 16.57 13.43 30 30 30s30-13.43 30-30V419.32c0-16.57-13.43-30-30-30zM384.86 389.32c-16.57 0-30 13.43-30 30v186.64c0 16.57 13.43 30 30 30s30-13.43 30-30V419.32c0-16.57-13.43-30-30-30zM251.28 389.32c-16.57 0-30 13.43-30 30v186.64c0 16.57 13.43 30 30 30s30-13.43 30-30V419.32c0-16.57-13.43-30-30-30z" fill="#333333" p-id="1355"></path></svg>
