<?xml version="1.0" encoding="iso-8859-1"?>
<!-- Generator: Adobe Illustrator 17.1.0, SVG Export Plug-In . SVG Version: 6.00 Build 0)  -->
<!DOCTYPE svg PUBLIC "-//W3C//DTD SVG 1.1//EN" "http://www.w3.org/Graphics/SVG/1.1/DTD/svg11.dtd">
<svg version="1.1" id="Capa_1" xmlns="http://www.w3.org/2000/svg" xmlns:xlink="http://www.w3.org/1999/xlink" x="0px" y="0px"
	 viewBox="0 0 249.468 249.468" style="enable-background:new 0 0 249.468 249.468;" xml:space="preserve">
<path d="M237.694,48.525H81.655c-6.002,0-13.614,3.693-17.329,8.409L40.633,87.009c-3.087,3.918-9.517,8.998-14.041,11.093
	l-16.589,7.684C4.393,108.383,0,115.26,0,121.441v43.994c0,6.492,5.281,11.773,11.773,11.773h5.243
	c3.99,13.694,16.646,23.733,31.61,23.733s27.62-10.039,31.61-23.733h70.414c3.99,13.694,16.646,23.733,31.61,23.733
	c14.964,0,27.619-10.039,31.608-23.733h23.824c6.492,0,11.773-5.281,11.773-11.773V60.299
	C249.468,53.807,244.186,48.525,237.694,48.525z M48.627,184.371c-9.032,0-16.355-7.323-16.355-16.355
	c0-9.032,7.323-16.355,16.355-16.355s16.355,7.322,16.355,16.355C64.982,177.048,57.659,184.371,48.627,184.371z M116.615,97.089
	c0,3.3-2.7,5.964-5.999,5.92l-52.998-0.712c-3.299-0.044-4.348-2.216-2.328-4.826l21.674-28.028c2.02-2.61,6.371-4.746,9.671-4.746
	h23.98c3.3,0,6,2.7,6,6V97.089z M133.94,103.089c-3.3,0-6-2.7-6-6V70.756c0-3.3,2.7-6,6-6h35.3c3.3,0,6,2.7,6,6v26.333
	c0,3.3-2.7,6-6,6H133.94z M182.262,184.371c-9.031,0-16.354-7.323-16.354-16.355c0-9.032,7.322-16.355,16.354-16.355
	c9.032,0,16.355,7.322,16.355,16.355C198.617,177.048,191.294,184.371,182.262,184.371z M232.711,97.089c0,3.3-2.7,6-6,6h-35.3
	c-3.3,0-6-2.7-6-6V70.756c0-3.3,2.7-6,6-6h35.3c3.3,0,6,2.7,6,6V97.089z"/>
<g>
</g>
<g>
</g>
<g>
</g>
<g>
</g>
<g>
</g>
<g>
</g>
<g>
</g>
<g>
</g>
<g>
</g>
<g>
</g>
<g>
</g>
<g>
</g>
<g>
</g>
<g>
</g>
<g>
</g>
</svg>
