<?xml version="1.0" standalone="no"?><!DOCTYPE svg PUBLIC "-//W3C//DTD SVG 1.1//EN" "http://www.w3.org/Graphics/SVG/1.1/DTD/svg11.dtd"><svg t="1623571845246" class="icon" viewBox="0 0 1024 1024" version="1.1" xmlns="http://www.w3.org/2000/svg" p-id="3875" xmlns:xlink="http://www.w3.org/1999/xlink" width="200" height="200"><defs><style type="text/css"></style></defs><path d="M975.2576 43.008l-8.6016-12.288-8.6016-12.288c-4.9152-7.168-14.7456-8.8064-21.9136-3.8912L539.8528 292.2496c-2.2528 1.4336-3.8912 3.4816-5.12 5.9392l-13.5168 27.8528c-5.3248 11.0592 3.4816 23.7568 15.7696 22.528l30.9248-3.2768c2.6624-0.2048 5.12-1.2288 7.3728-2.6624L971.5712 64.9216c6.9632-4.9152 8.8064-14.7456 3.6864-21.9136z" p-id="3876"></path><path d="M568.9344 377.856l-30.9248 3.2768c-1.6384 0.2048-3.2768 0.2048-4.9152 0.2048-14.9504 0-29.2864-7.3728-37.888-19.8656-9.6256-13.7216-11.0592-31.744-3.6864-46.8992l13.5168-27.8528c3.4816-6.9632 8.6016-13.1072 15.1552-17.6128L851.1488 37.2736C837.632 14.9504 813.2608 0 785.408 0h-708.608C34.6112 0 0 34.6112 0 76.8v870.4C0 989.3888 34.6112 1024 76.8 1024h708.608c42.1888 0 76.8-34.6112 76.8-76.8V179.6096l-271.5648 190.2592c-6.3488 4.5056-13.9264 7.168-21.7088 7.9872zM782.336 713.9328v17.8176c0 16.7936-13.9264 30.72-30.72 30.72H159.744c-16.9984 0-30.72-13.9264-30.72-30.72v-17.8176c0-16.9984 13.9264-30.72 30.72-30.72h591.872c16.9984 0 30.72 13.9264 30.72 30.72zM634.88 442.368c0 16.9984-13.9264 30.72-30.72 30.72H159.744c-16.9984 0-30.72-13.9264-30.72-30.72s13.9264-30.72 30.72-30.72h444.416c16.9984 0 30.72 13.9264 30.72 30.72z" p-id="3877"></path></svg>